<mxfile host="Electron" modified="2024-07-05T22:06:06.876Z" agent="Mozilla/5.0 (Windows NT 10.0; Win64; x64) AppleWebKit/537.36 (KHTML, like Gecko) draw.io/24.4.13 Chrome/124.0.6367.207 Electron/30.0.6 Safari/537.36" etag="pxqX9uxgti-2uOKBjLIV" version="24.4.13" type="device">
  <diagram name="Page-1" id="WalKk4sRqyb4TxGoy4RU">
    <mxGraphModel dx="819" dy="478" grid="1" gridSize="10" guides="1" tooltips="1" connect="1" arrows="1" fold="1" page="1" pageScale="1" pageWidth="850" pageHeight="1100" math="0" shadow="0">
      <root>
        <mxCell id="0" />
        <mxCell id="1" parent="0" />
        <mxCell id="HErQSIWttafAOB8g6kLo-1" value="RunPersistence" style="rounded=0;whiteSpace=wrap;html=1;fontFamily=&quot;Latin Modern Mono 12&quot;;" vertex="1" parent="1">
          <mxGeometry x="200" y="280" width="100" height="40" as="geometry" />
        </mxCell>
        <mxCell id="HErQSIWttafAOB8g6kLo-2" value="&lt;p style=&quot;line-height: 100%;&quot;&gt;Blueprint-Reward-Controller&lt;/p&gt;" style="rounded=0;whiteSpace=wrap;html=1;fontFamily=&quot;Latin Modern Mono 12&quot;;spacingBottom=5;" vertex="1" parent="1">
          <mxGeometry x="400" y="280" width="100" height="40" as="geometry" />
        </mxCell>
        <mxCell id="HErQSIWttafAOB8g6kLo-3" value="Prepare reward" style="endArrow=classic;html=1;rounded=0;fontFamily=&quot;Latin Modern Regular 12&quot;;fontSize=12;" edge="1" parent="1">
          <mxGeometry width="50" height="50" relative="1" as="geometry">
            <mxPoint x="300" y="299.71" as="sourcePoint" />
            <mxPoint x="400" y="299.71" as="targetPoint" />
          </mxGeometry>
        </mxCell>
        <mxCell id="HErQSIWttafAOB8g6kLo-5" value="Change scene" style="endArrow=classic;html=1;rounded=0;fontFamily=&quot;Latin Modern Regular 12&quot;;fontSize=12;" edge="1" parent="1">
          <mxGeometry width="50" height="50" relative="1" as="geometry">
            <mxPoint x="500" y="299.71" as="sourcePoint" />
            <mxPoint x="600" y="299.71" as="targetPoint" />
          </mxGeometry>
        </mxCell>
        <mxCell id="HErQSIWttafAOB8g6kLo-6" value="SceneController" style="rounded=0;whiteSpace=wrap;html=1;fontFamily=&quot;Latin Modern Mono 12&quot;;" vertex="1" parent="1">
          <mxGeometry x="600" y="280" width="100" height="40" as="geometry" />
        </mxCell>
        <mxCell id="HErQSIWttafAOB8g6kLo-7" value="" style="rounded=0;whiteSpace=wrap;html=1;dashed=1;fillColor=none;" vertex="1" parent="1">
          <mxGeometry x="200" y="360" width="500" height="120" as="geometry" />
        </mxCell>
        <mxCell id="HErQSIWttafAOB8g6kLo-24" value="Finish selection" style="edgeStyle=orthogonalEdgeStyle;rounded=0;orthogonalLoop=1;jettySize=auto;html=1;entryX=0.5;entryY=1;entryDx=0;entryDy=0;fontFamily=&quot;Latin Modern Regular 12&quot;;fontSize=12;" edge="1" parent="1" source="HErQSIWttafAOB8g6kLo-8" target="HErQSIWttafAOB8g6kLo-1">
          <mxGeometry relative="1" as="geometry">
            <Array as="points">
              <mxPoint x="390" y="340" />
              <mxPoint x="250" y="340" />
            </Array>
          </mxGeometry>
        </mxCell>
        <mxCell id="HErQSIWttafAOB8g6kLo-8" value="&lt;p style=&quot;line-height: 100%;&quot;&gt;Blueprint-Selection-Controller&lt;/p&gt;" style="rounded=0;whiteSpace=wrap;html=1;fontFamily=&quot;Latin Modern Mono 12&quot;;spacingBottom=5;" vertex="1" parent="1">
          <mxGeometry x="370" y="370" width="100" height="40" as="geometry" />
        </mxCell>
        <mxCell id="HErQSIWttafAOB8g6kLo-10" value="Initialize" style="endArrow=classic;html=1;rounded=0;fontFamily=&quot;Latin Modern Regular 12&quot;;fontSize=12;" edge="1" parent="1">
          <mxGeometry x="-0.2" width="50" height="50" relative="1" as="geometry">
            <mxPoint x="449.71000000000004" y="320" as="sourcePoint" />
            <mxPoint x="449.71000000000004" y="370" as="targetPoint" />
            <mxPoint as="offset" />
          </mxGeometry>
        </mxCell>
        <mxCell id="HErQSIWttafAOB8g6kLo-16" value="Clicked" style="edgeStyle=orthogonalEdgeStyle;rounded=0;orthogonalLoop=1;jettySize=auto;html=1;fontFamily=&quot;Latin Modern Regular 12&quot;;fontSize=12;" edge="1" parent="1" source="HErQSIWttafAOB8g6kLo-11" target="HErQSIWttafAOB8g6kLo-8">
          <mxGeometry x="-0.0587" relative="1" as="geometry">
            <Array as="points">
              <mxPoint x="450" y="420" />
            </Array>
            <mxPoint as="offset" />
          </mxGeometry>
        </mxCell>
        <mxCell id="HErQSIWttafAOB8g6kLo-11" value="BlueprintDisplay" style="rounded=0;whiteSpace=wrap;html=1;fontFamily=&quot;Latin Modern Mono 12&quot;;" vertex="1" parent="1">
          <mxGeometry x="580" y="385" width="100" height="40" as="geometry" />
        </mxCell>
        <mxCell id="HErQSIWttafAOB8g6kLo-12" value="" style="rounded=0;whiteSpace=wrap;html=1;fillColor=none;dashed=1;dashPattern=1 1;" vertex="1" parent="1">
          <mxGeometry x="570" y="375" width="120" height="60" as="geometry" />
        </mxCell>
        <mxCell id="HErQSIWttafAOB8g6kLo-13" value="Instantiate" style="endArrow=classic;html=1;rounded=0;fontSize=12;fontFamily=&quot;Latin Modern Regular 12&quot;;" edge="1" parent="1">
          <mxGeometry width="50" height="50" relative="1" as="geometry">
            <mxPoint x="470" y="375" as="sourcePoint" />
            <mxPoint x="570" y="375" as="targetPoint" />
          </mxGeometry>
        </mxCell>
        <mxCell id="HErQSIWttafAOB8g6kLo-14" value="Initialize" style="endArrow=classic;html=1;rounded=0;fontSize=12;fontFamily=&quot;Latin Modern Regular 12&quot;;" edge="1" parent="1">
          <mxGeometry width="50" height="50" relative="1" as="geometry">
            <mxPoint x="470" y="390" as="sourcePoint" />
            <mxPoint x="580" y="390" as="targetPoint" />
          </mxGeometry>
        </mxCell>
        <mxCell id="HErQSIWttafAOB8g6kLo-15" value="Update outline" style="endArrow=classic;html=1;rounded=0;fontSize=12;fontFamily=&quot;Latin Modern Regular 12&quot;;" edge="1" parent="1">
          <mxGeometry width="50" height="50" relative="1" as="geometry">
            <mxPoint x="470" y="404.71" as="sourcePoint" />
            <mxPoint x="580" y="404.71" as="targetPoint" />
          </mxGeometry>
        </mxCell>
        <mxCell id="HErQSIWttafAOB8g6kLo-17" value="InfoPanel" style="rounded=0;whiteSpace=wrap;html=1;fontFamily=&quot;Latin Modern Mono 12&quot;;" vertex="1" parent="1">
          <mxGeometry x="210" y="370" width="100" height="40" as="geometry" />
        </mxCell>
        <mxCell id="HErQSIWttafAOB8g6kLo-18" value="Show" style="endArrow=classic;html=1;rounded=0;fontStyle=0;fontFamily=&quot;Latin Modern Regular 12&quot;;fontSize=12;" edge="1" parent="1">
          <mxGeometry width="50" height="50" relative="1" as="geometry">
            <mxPoint x="370" y="380" as="sourcePoint" />
            <mxPoint x="310" y="380" as="targetPoint" />
          </mxGeometry>
        </mxCell>
        <mxCell id="HErQSIWttafAOB8g6kLo-20" value="Hide" style="endArrow=classic;html=1;rounded=0;fontStyle=0;fontFamily=&quot;Latin Modern Regular 12&quot;;fontSize=12;" edge="1" parent="1">
          <mxGeometry width="50" height="50" relative="1" as="geometry">
            <mxPoint x="370" y="400" as="sourcePoint" />
            <mxPoint x="310" y="400" as="targetPoint" />
          </mxGeometry>
        </mxCell>
        <mxCell id="HErQSIWttafAOB8g6kLo-25" value="" style="endArrow=none;html=1;rounded=0;dashed=1;" edge="1" parent="1">
          <mxGeometry width="50" height="50" relative="1" as="geometry">
            <mxPoint x="649.71" y="360" as="sourcePoint" />
            <mxPoint x="649.71" y="320" as="targetPoint" />
          </mxGeometry>
        </mxCell>
        <mxCell id="HErQSIWttafAOB8g6kLo-27" value="Blueprint Selection scene" style="text;html=1;align=center;verticalAlign=middle;whiteSpace=wrap;rounded=0;fontStyle=2;fontFamily=&quot;Latin Modern Regular 12&quot;;" vertex="1" parent="1">
          <mxGeometry x="520" y="340" width="130" height="20" as="geometry" />
        </mxCell>
        <mxCell id="HErQSIWttafAOB8g6kLo-29" value="Clicked" style="edgeStyle=orthogonalEdgeStyle;rounded=0;orthogonalLoop=1;jettySize=auto;html=1;fontFamily=&quot;Latin Modern Regular 12&quot;;fontSize=12;" edge="1" parent="1" source="HErQSIWttafAOB8g6kLo-28" target="HErQSIWttafAOB8g6kLo-8">
          <mxGeometry x="-0.3335" relative="1" as="geometry">
            <Array as="points">
              <mxPoint x="390" y="450" />
            </Array>
            <mxPoint as="offset" />
          </mxGeometry>
        </mxCell>
        <mxCell id="HErQSIWttafAOB8g6kLo-28" value="Buttons" style="rounded=0;whiteSpace=wrap;html=1;fontFamily=&quot;Latin Modern Regular 12&quot;;fontStyle=2;dashed=1;dashPattern=1 1;" vertex="1" parent="1">
          <mxGeometry x="210" y="430" width="100" height="40" as="geometry" />
        </mxCell>
      </root>
    </mxGraphModel>
  </diagram>
</mxfile>
